<?xml version="1.0"?>
<!-- Generated by SVGo -->
<svg width="411.477mm" height="212.044mm"
     viewBox="0.000 0.000 411.477 212.044"
     xmlns="http://www.w3.org/2000/svg" 
     xmlns:xlink="http://www.w3.org/1999/xlink">
<polygon points="396.477,5.001 397.261,5.031 398.041,5.124 398.811,5.277 399.567,5.490 400.303,5.762 401.016,6.090 401.701,6.474 402.354,6.910 402.971,7.396 403.548,7.929 404.081,8.506 404.567,9.123 405.003,9.776 405.387,10.461 405.715,11.174 405.987,11.910 406.200,12.666 406.353,13.436 406.446,14.216 406.477,15.001 406.477,197.044 406.446,197.829 406.353,198.608 406.200,199.379 405.987,200.134 405.715,200.871 405.387,201.584 405.003,202.269 404.567,202.922 404.081,203.539 403.548,204.115 402.971,204.648 402.354,205.134 401.701,205.571 401.016,205.954 400.303,206.283 399.567,206.555 398.811,206.768 398.041,206.921 397.261,207.013 396.477,207.044 15.001,207.044 14.216,207.013 13.436,206.921 12.666,206.768 11.910,206.555 11.174,206.283 10.461,205.954 9.776,205.571 9.123,205.134 8.506,204.648 7.929,204.115 7.396,203.539 6.910,202.922 6.474,202.269 6.090,201.584 5.762,200.871 5.490,200.134 5.277,199.379 5.124,198.608 5.031,197.829 5.000,197.044 5.001,15.001 5.031,14.216 5.124,13.436 5.277,12.666 5.490,11.910 5.762,11.174 6.090,10.461 6.474,9.776 6.910,9.123 7.396,8.506 7.929,7.929 8.506,7.396 9.123,6.910 9.776,6.474 10.461,6.090 11.174,5.762 11.910,5.490 12.666,5.277 13.436,5.124 14.216,5.031 15.001,5.000" style="fill:none;stroke-width:0.050000mm;stroke:black"/>
<polygon points="11.882,197.642 11.325,197.926 10.882,198.369 10.598,198.926 10.501,199.544 10.598,200.162 10.882,200.720 11.325,201.162 11.882,201.446 12.501,201.544 13.119,201.446 13.676,201.162 14.119,200.720 14.403,200.162 14.501,199.544 14.403,198.926 14.119,198.369 13.676,197.926 13.119,197.642 12.501,197.544" style="fill:none;stroke-width:0.050000mm;stroke:black"/>
<polygon points="140.708,197.642 140.150,197.926 139.708,198.369 139.424,198.926 139.326,199.544 139.424,200.162 139.708,200.720 140.150,201.162 140.708,201.446 141.326,201.544 141.944,201.446 142.501,201.162 142.944,200.720 143.228,200.162 143.326,199.544 143.228,198.926 142.944,198.369 142.501,197.926 141.944,197.642 141.326,197.544" style="fill:none;stroke-width:0.050000mm;stroke:black"/>
<polygon points="269.533,197.642 268.976,197.926 268.533,198.369 268.249,198.926 268.151,199.544 268.249,200.162 268.533,200.720 268.976,201.162 269.533,201.446 270.151,201.544 270.769,201.446 271.327,201.162 271.769,200.720 272.053,200.162 272.151,199.544 272.053,198.926 271.769,198.369 271.327,197.926 270.769,197.642 270.151,197.544" style="fill:none;stroke-width:0.050000mm;stroke:black"/>
<polygon points="398.358,197.642 397.801,197.926 397.358,198.369 397.074,198.926 396.977,199.544 397.074,200.162 397.358,200.720 397.801,201.162 398.358,201.446 398.977,201.544 399.595,201.446 400.152,201.162 400.595,200.720 400.879,200.162 400.977,199.544 400.879,198.926 400.595,198.369 400.152,197.926 399.595,197.642 398.977,197.544" style="fill:none;stroke-width:0.050000mm;stroke:black"/>
<polygon points="224.194,159.047 243.245,192.044 292.740,163.468 273.689,130.471" style="fill:none;stroke-width:0.050000mm;stroke:black"/>
<polygon points="121.117,162.830 170.612,191.406 189.663,158.409 140.168,129.833" style="fill:none;stroke-width:0.050000mm;stroke:black"/>
<polygon points="305.750,43.812 305.750,46.289 286.700,46.289 286.700,48.575 229.550,48.575 229.550,96.200 229.549,96.200 229.549,124.777 286.700,124.777 286.700,141.541 305.752,141.541 305.752,139.064 324.800,139.064 324.800,141.541 343.850,141.541 343.850,146.303 381.952,146.303 381.952,127.253 391.477,127.253 391.477,51.051 343.852,51.051 343.852,46.289 324.802,46.289 324.802,43.812" style="fill:none;stroke-width:0.050000mm;stroke:black"/>
<polygon points="86.675,43.812 86.675,46.289 67.625,46.289 67.625,51.051 20.000,51.051 20.000,127.253 29.524,127.253 29.524,146.303 67.626,146.303 67.626,141.541 86.677,141.541 86.677,139.064 105.725,139.064 105.725,141.541 124.777,141.541 124.777,124.777 181.927,124.777 181.927,48.575 124.777,48.575 124.777,46.289 105.727,46.289 105.727,43.812" style="fill:none;stroke-width:0.050000mm;stroke:black"/>
<polygon points="372.425,20.000 372.425,39.052 391.477,39.052 391.477,20.000" style="fill:none;stroke-width:0.050000mm;stroke:black"/>
<polygon points="348.612,20.000 348.612,39.052 367.664,39.052 367.664,20.000" style="fill:none;stroke-width:0.050000mm;stroke:black"/>
<polygon points="324.800,20.000 324.800,39.052 343.852,39.052 343.852,20.000" style="fill:none;stroke-width:0.050000mm;stroke:black"/>
<polygon points="300.987,20.000 300.987,39.052 320.039,39.052 320.039,20.000" style="fill:none;stroke-width:0.050000mm;stroke:black"/>
<polygon points="277.175,20.000 277.175,39.052 296.227,39.052 296.227,20.000" style="fill:none;stroke-width:0.050000mm;stroke:black"/>
<polygon points="253.362,20.000 253.362,39.052 272.414,39.052 272.414,20.000" style="fill:none;stroke-width:0.050000mm;stroke:black"/>
<polygon points="229.549,20.000 229.549,39.052 248.602,39.052 248.602,20.000" style="fill:none;stroke-width:0.050000mm;stroke:black"/>
<polygon points="162.875,20.000 162.875,39.052 181.927,39.052 181.927,20.000" style="fill:none;stroke-width:0.050000mm;stroke:black"/>
<polygon points="139.062,20.000 139.062,39.052 158.114,39.052 158.114,20.000" style="fill:none;stroke-width:0.050000mm;stroke:black"/>
<polygon points="115.250,20.000 115.250,39.052 134.302,39.052 134.302,20.000" style="fill:none;stroke-width:0.050000mm;stroke:black"/>
<polygon points="91.437,20.000 91.437,39.052 110.489,39.052 110.489,20.000" style="fill:none;stroke-width:0.050000mm;stroke:black"/>
<polygon points="67.625,20.000 67.625,39.052 86.677,39.052 86.677,20.000" style="fill:none;stroke-width:0.050000mm;stroke:black"/>
<polygon points="43.812,20.000 43.812,39.052 62.864,39.052 62.864,20.000" style="fill:none;stroke-width:0.050000mm;stroke:black"/>
<polygon points="20.000,20.000 20.000,39.052 39.052,39.052 39.052,20.000" style="fill:none;stroke-width:0.050000mm;stroke:black"/>
<polygon points="11.882,10.598 11.325,10.882 10.882,11.325 10.598,11.882 10.501,12.501 10.598,13.119 10.882,13.676 11.325,14.119 11.882,14.403 12.501,14.501 13.119,14.403 13.676,14.119 14.119,13.676 14.403,13.119 14.501,12.501 14.403,11.882 14.119,11.325 13.676,10.882 13.119,10.598 12.501,10.501" style="fill:none;stroke-width:0.050000mm;stroke:black"/>
<polygon points="398.358,10.598 397.801,10.882 397.358,11.325 397.074,11.882 396.977,12.501 397.074,13.119 397.358,13.676 397.801,14.119 398.358,14.403 398.977,14.501 399.595,14.403 400.152,14.119 400.595,13.676 400.879,13.119 400.977,12.501 400.879,11.882 400.595,11.325 400.152,10.882 399.595,10.598 398.977,10.501" style="fill:none;stroke-width:0.050000mm;stroke:black"/>
<polygon points="269.533,10.598 268.976,10.882 268.533,11.325 268.249,11.882 268.151,12.501 268.249,13.119 268.533,13.676 268.976,14.119 269.533,14.403 270.151,14.501 270.769,14.403 271.327,14.119 271.769,13.676 272.053,13.119 272.151,12.501 272.053,11.882 271.769,11.325 271.327,10.882 270.769,10.598 270.151,10.501" style="fill:none;stroke-width:0.050000mm;stroke:black"/>
<polygon points="140.708,10.598 140.150,10.882 139.708,11.325 139.424,11.882 139.326,12.501 139.424,13.119 139.708,13.676 140.150,14.119 140.708,14.403 141.326,14.501 141.944,14.403 142.501,14.119 142.944,13.676 143.228,13.119 143.326,12.501 143.228,11.882 142.944,11.325 142.501,10.882 141.944,10.598 141.326,10.501" style="fill:none;stroke-width:0.050000mm;stroke:black"/>
</svg>
