<?xml version="1.0"?>
<!-- Generated by SVGo -->
<svg width="411.477mm" height="212.044mm"
     viewBox="0.000 0.000 411.477 212.044"
     xmlns="http://www.w3.org/2000/svg" 
     xmlns:xlink="http://www.w3.org/1999/xlink">
<polygon points="396.477,5.001 397.261,5.031 398.041,5.124 398.811,5.277 399.567,5.490 400.303,5.762 401.016,6.090 401.701,6.474 402.354,6.910 402.971,7.396 403.548,7.929 404.081,8.506 404.567,9.123 405.003,9.776 405.387,10.461 405.715,11.174 405.987,11.910 406.200,12.666 406.353,13.436 406.446,14.216 406.477,15.001 406.477,197.044 406.446,197.829 406.353,198.608 406.200,199.379 405.987,200.134 405.715,200.871 405.387,201.584 405.003,202.269 404.567,202.922 404.081,203.539 403.548,204.115 402.971,204.648 402.354,205.134 401.701,205.571 401.016,205.954 400.303,206.283 399.567,206.555 398.811,206.768 398.041,206.921 397.261,207.013 396.477,207.044 15.001,207.044 14.216,207.013 13.436,206.921 12.666,206.768 11.910,206.555 11.174,206.283 10.461,205.954 9.776,205.571 9.123,205.134 8.506,204.648 7.929,204.115 7.396,203.539 6.910,202.922 6.474,202.269 6.090,201.584 5.762,200.871 5.490,200.134 5.277,199.379 5.124,198.608 5.031,197.829 5.000,197.044 5.001,15.001 5.031,14.216 5.124,13.436 5.277,12.666 5.490,11.910 5.762,11.174 6.090,10.461 6.474,9.776 6.910,9.123 7.396,8.506 7.929,7.929 8.506,7.396 9.123,6.910 9.776,6.474 10.461,6.090 11.174,5.762 11.910,5.490 12.666,5.277 13.436,5.124 14.216,5.031 15.001,5.000" style="fill:none;stroke-width:0.050000mm;stroke:black"/>
<polygon points="11.882,197.642 11.325,197.926 10.882,198.369 10.598,198.926 10.501,199.544 10.598,200.162 10.882,200.720 11.325,201.162 11.882,201.446 12.501,201.544 13.119,201.446 13.676,201.162 14.119,200.720 14.403,200.162 14.501,199.544 14.403,198.926 14.119,198.369 13.676,197.926 13.119,197.642 12.501,197.544" style="fill:none;stroke-width:0.050000mm;stroke:black"/>
<polygon points="140.708,197.642 140.150,197.926 139.708,198.369 139.424,198.926 139.326,199.544 139.424,200.162 139.708,200.720 140.150,201.162 140.708,201.446 141.326,201.544 141.944,201.446 142.501,201.162 142.944,200.720 143.228,200.162 143.326,199.544 143.228,198.926 142.944,198.369 142.501,197.926 141.944,197.642 141.326,197.544" style="fill:none;stroke-width:0.050000mm;stroke:black"/>
<polygon points="269.533,197.642 268.976,197.926 268.533,198.369 268.249,198.926 268.151,199.544 268.249,200.162 268.533,200.720 268.976,201.162 269.533,201.446 270.151,201.544 270.769,201.446 271.327,201.162 271.769,200.720 272.053,200.162 272.151,199.544 272.053,198.926 271.769,198.369 271.327,197.926 270.769,197.642 270.151,197.544" style="fill:none;stroke-width:0.050000mm;stroke:black"/>
<polygon points="398.358,197.642 397.801,197.926 397.358,198.369 397.074,198.926 396.977,199.544 397.074,200.162 397.358,200.720 397.801,201.162 398.358,201.446 398.977,201.544 399.595,201.446 400.152,201.162 400.595,200.720 400.879,200.162 400.977,199.544 400.879,198.926 400.595,198.369 400.152,197.926 399.595,197.642 398.977,197.544" style="fill:none;stroke-width:0.050000mm;stroke:black"/>
<polygon points="237.170,176.469 237.670,177.335 236.977,177.735 238.527,180.420 239.220,180.020 242.120,185.043 241.427,185.443 242.977,188.128 243.670,187.728 244.170,188.594 256.294,181.594 255.794,180.728 256.487,180.328 254.937,177.643 254.244,178.043 251.344,173.020 252.037,172.620 250.487,169.935 249.794,170.335 249.294,169.469" style="fill:none;stroke-width:0.050000mm;stroke:black"/>
<polygon points="164.063,169.697 163.370,169.297 161.820,171.982 162.513,172.382 159.613,177.405 158.920,177.005 157.370,179.689 158.063,180.089 157.563,180.955 169.687,187.955 170.187,187.089 170.880,187.489 172.430,184.805 171.737,184.405 174.637,179.382 175.330,179.782 176.880,177.097 176.187,176.697 176.687,175.831 164.563,168.831" style="fill:none;stroke-width:0.050000mm;stroke:black"/>
<polygon points="253.668,166.944 254.168,167.810 253.475,168.210 255.025,170.895 255.718,170.495 258.618,175.518 257.924,175.918 259.475,178.603 260.167,178.203 260.667,179.069 272.792,172.069 272.292,171.203 272.985,170.803 271.435,168.118 270.742,168.518 267.842,163.495 268.535,163.095 266.985,160.410 266.292,160.810 265.792,159.944" style="fill:none;stroke-width:0.050000mm;stroke:black"/>
<polygon points="147.565,160.172 146.872,159.772 145.322,162.457 146.015,162.857 143.115,167.880 142.422,167.480 140.872,170.164 141.565,170.564 141.065,171.430 153.189,178.430 153.689,177.564 154.382,177.964 155.932,175.280 155.239,174.880 158.139,169.857 158.832,170.257 160.382,167.572 159.689,167.172 160.189,166.306 148.065,159.306" style="fill:none;stroke-width:0.050000mm;stroke:black"/>
<polygon points="227.645,159.971 228.145,160.837 227.452,161.237 229.002,163.922 229.695,163.522 232.595,168.545 231.902,168.945 233.452,171.630 234.145,171.230 234.645,172.096 246.769,165.096 246.269,164.230 246.962,163.830 245.412,161.145 244.719,161.545 241.819,156.522 242.512,156.122 240.962,153.437 240.269,153.837 239.769,152.971" style="fill:none;stroke-width:0.050000mm;stroke:black"/>
<polygon points="173.588,153.199 172.895,152.799 171.345,155.484 172.038,155.884 169.138,160.907 168.445,160.507 166.895,163.192 167.588,163.592 167.088,164.458 179.212,171.458 179.712,170.592 180.405,170.992 181.955,168.307 181.262,167.907 184.162,162.884 184.855,163.284 186.405,160.599 185.712,160.199 186.212,159.333 174.088,152.333" style="fill:none;stroke-width:0.050000mm;stroke:black"/>
<polygon points="270.166,157.419 270.666,158.285 269.973,158.685 271.523,161.370 272.216,160.970 275.116,165.993 274.423,166.393 275.973,169.078 276.666,168.678 277.166,169.544 289.290,162.544 288.790,161.678 289.483,161.278 287.933,158.593 287.240,158.993 284.340,153.970 285.033,153.570 283.483,150.885 282.790,151.285 282.290,150.419" style="fill:none;stroke-width:0.050000mm;stroke:black"/>
<polygon points="131.067,150.647 130.375,150.247 128.825,152.932 129.515,153.332 126.617,158.355 125.925,157.955 124.375,160.639 125.067,161.039 124.567,161.905 136.692,168.905 137.192,168.039 137.885,168.439 139.435,165.755 138.742,165.355 141.642,160.332 142.335,160.732 143.885,158.047 143.192,157.647 143.692,156.781 131.567,149.781" style="fill:none;stroke-width:0.050000mm;stroke:black"/>
<polygon points="244.143,150.446 244.643,151.312 243.950,151.712 245.500,154.397 246.193,153.997 249.093,159.020 248.400,159.420 249.950,162.105 250.643,161.705 251.143,162.571 263.267,155.571 262.767,154.705 263.460,154.305 261.910,151.620 261.217,152.020 258.316,146.997 259.010,146.597 257.460,143.912 256.767,144.312 256.267,143.446" style="fill:none;stroke-width:0.050000mm;stroke:black"/>
<polygon points="157.090,143.674 156.397,143.274 154.847,145.959 155.540,146.359 152.640,151.382 151.947,150.982 150.397,153.667 151.090,154.067 150.590,154.933 162.714,161.933 163.214,161.067 163.907,161.467 165.457,158.782 164.764,158.382 167.664,153.359 168.357,153.759 169.907,151.074 169.214,150.674 169.714,149.808 157.590,142.808" style="fill:none;stroke-width:0.050000mm;stroke:black"/>
<polygon points="260.641,140.921 261.141,141.787 260.448,142.187 261.998,144.872 262.691,144.472 265.591,149.495 264.898,149.895 266.448,152.580 267.141,152.180 267.641,153.046 279.765,146.046 279.265,145.180 279.958,144.780 278.408,142.095 277.715,142.495 274.815,137.472 275.508,137.072 273.958,134.387 273.265,134.787 272.765,133.921" style="fill:none;stroke-width:0.050000mm;stroke:black"/>
<polygon points="140.592,134.149 139.900,133.749 138.350,136.434 139.042,136.834 136.142,141.857 135.450,141.457 133.900,144.142 134.592,144.542 134.092,145.408 146.217,152.408 146.717,151.542 147.410,151.942 148.960,149.257 148.267,148.857 151.167,143.834 151.860,144.234 153.410,141.549 152.717,141.149 153.217,140.283 141.092,133.283" style="fill:none;stroke-width:0.050000mm;stroke:black"/>
<polygon points="365.426,129.777 365.426,130.777 364.626,130.777 364.626,133.877 365.426,133.877 365.426,139.677 364.626,139.677 364.626,142.777 365.426,142.777 365.426,143.777 379.426,143.777 379.426,142.777 380.226,142.777 380.226,139.677 379.426,139.677 379.426,133.877 380.226,133.877 380.226,130.777 379.426,130.777 379.426,129.777" style="fill:none;stroke-width:0.050000mm;stroke:black"/>
<polygon points="346.376,129.777 346.376,130.777 345.576,130.777 345.576,133.877 346.376,133.877 346.376,139.677 345.576,139.677 345.576,142.777 346.376,142.777 346.376,143.777 360.376,143.777 360.376,142.777 361.176,142.777 361.176,139.677 360.376,139.677 360.376,133.877 361.176,133.877 361.176,130.777 360.376,130.777 360.376,129.777" style="fill:none;stroke-width:0.050000mm;stroke:black"/>
<polygon points="51.100,129.777 51.100,130.777 50.301,130.777 50.301,133.877 51.100,133.877 51.100,139.677 50.301,139.677 50.301,142.777 51.100,142.777 51.100,143.777 65.100,143.777 65.100,142.777 65.900,142.777 65.900,139.677 65.100,139.677 65.100,133.877 65.900,133.877 65.900,130.777 65.100,130.777 65.100,129.777" style="fill:none;stroke-width:0.050000mm;stroke:black"/>
<polygon points="32.050,129.777 32.050,130.777 31.250,130.777 31.250,133.877 32.050,133.877 32.050,139.677 31.250,139.677 31.250,142.777 32.050,142.777 32.050,143.777 46.051,143.777 46.051,142.777 46.850,142.777 46.850,139.677 46.051,139.677 46.051,133.877 46.850,133.877 46.850,130.777 46.051,130.777 46.051,129.777" style="fill:none;stroke-width:0.050000mm;stroke:black"/>
<polygon points="327.326,125.015 327.326,126.015 326.526,126.015 326.526,129.115 327.326,129.115 327.326,134.915 326.526,134.915 326.526,138.015 327.326,138.015 327.326,139.015 341.326,139.015 341.326,138.015 342.126,138.015 342.126,134.915 341.326,134.915 341.326,129.115 342.126,129.115 342.126,126.015 341.326,126.015 341.326,125.015" style="fill:none;stroke-width:0.050000mm;stroke:black"/>
<polygon points="289.226,125.015 289.226,126.015 288.426,126.015 288.426,129.115 289.226,129.115 289.226,134.915 288.426,134.915 288.426,138.015 289.226,138.015 289.226,139.015 303.226,139.015 303.226,138.015 304.026,138.015 304.026,134.915 303.226,134.915 303.226,129.115 304.026,129.115 304.026,126.015 303.226,126.015 303.226,125.015" style="fill:none;stroke-width:0.050000mm;stroke:black"/>
<polygon points="108.251,125.015 108.251,126.015 107.451,126.015 107.451,129.115 108.251,129.115 108.251,134.915 107.451,134.915 107.451,138.015 108.251,138.015 108.251,139.015 122.251,139.015 122.251,138.015 123.051,138.015 123.051,134.915 122.251,134.915 122.251,129.115 123.051,129.115 123.051,126.015 122.251,126.015 122.251,125.015" style="fill:none;stroke-width:0.050000mm;stroke:black"/>
<polygon points="70.151,125.015 70.151,126.015 69.351,126.015 69.351,129.115 70.151,129.115 70.151,134.915 69.351,134.915 69.351,138.015 70.151,138.015 70.151,139.015 84.151,139.015 84.151,138.015 84.951,138.015 84.951,134.915 84.151,134.915 84.151,129.115 84.951,129.115 84.951,126.015 84.151,126.015 84.151,125.015" style="fill:none;stroke-width:0.050000mm;stroke:black"/>
<polygon points="308.276,122.538 308.276,123.538 307.476,123.538 307.476,126.638 308.276,126.638 308.276,132.438 307.476,132.438 307.476,135.538 308.276,135.538 308.276,136.538 322.276,136.538 322.276,135.538 323.076,135.538 323.076,132.438 322.276,132.438 322.276,126.638 323.076,126.638 323.076,123.538 322.276,123.538 322.276,122.538" style="fill:none;stroke-width:0.050000mm;stroke:black"/>
<polygon points="89.201,122.538 89.201,123.538 88.401,123.538 88.401,126.638 89.201,126.638 89.201,132.438 88.401,132.438 88.401,135.538 89.201,135.538 89.201,136.538 103.201,136.538 103.201,135.538 104.001,135.538 104.001,132.438 103.201,132.438 103.201,126.638 104.001,126.638 104.001,123.538 103.201,123.538 103.201,122.538" style="fill:none;stroke-width:0.050000mm;stroke:black"/>
<polygon points="370.188,110.727 370.188,111.727 369.388,111.727 369.388,114.827 370.188,114.827 370.188,120.627 369.388,120.627 369.388,123.727 370.188,123.727 370.188,124.727 384.188,124.727 384.188,123.727 384.988,123.727 384.988,120.627 384.188,120.627 384.188,114.827 384.988,114.827 384.988,111.727 384.188,111.727 384.188,110.727" style="fill:none;stroke-width:0.050000mm;stroke:black"/>
<polygon points="346.376,110.727 346.376,111.727 345.576,111.727 345.576,114.827 346.376,114.827 346.376,120.627 345.576,120.627 345.576,123.727 346.376,123.727 346.376,124.727 360.376,124.727 360.376,123.727 361.176,123.727 361.176,120.627 360.376,120.627 360.376,114.827 361.176,114.827 361.176,111.727 360.376,111.727 360.376,110.727" style="fill:none;stroke-width:0.050000mm;stroke:black"/>
<polygon points="51.101,110.727 51.101,111.727 50.301,111.727 50.301,114.827 51.101,114.827 51.101,120.627 50.301,120.627 50.301,123.727 51.101,123.727 51.101,124.727 65.100,124.727 65.100,123.727 65.901,123.727 65.901,120.627 65.100,120.627 65.100,114.827 65.901,114.827 65.901,111.727 65.100,111.727 65.100,110.727" style="fill:none;stroke-width:0.050000mm;stroke:black"/>
<polygon points="27.288,110.727 27.288,111.727 26.488,111.727 26.488,114.827 27.288,114.827 27.288,120.627 26.488,120.627 26.488,123.727 27.288,123.727 27.288,124.727 41.288,124.727 41.288,123.727 42.088,123.727 42.088,120.627 41.288,120.627 41.288,114.827 42.088,114.827 42.088,111.727 41.288,111.727 41.288,110.727" style="fill:none;stroke-width:0.050000mm;stroke:black"/>
<polygon points="270.176,108.251 270.176,109.251 269.376,109.251 269.376,112.351 270.176,112.351 270.176,118.151 269.376,118.151 269.376,121.251 270.176,121.251 270.176,122.251 284.176,122.251 284.176,121.251 284.976,121.251 284.976,118.151 284.176,118.151 284.176,112.351 284.976,112.351 284.976,109.251 284.176,109.251 284.176,108.251" style="fill:none;stroke-width:0.050000mm;stroke:black"/>
<polygon points="251.126,108.251 251.126,109.251 250.326,109.251 250.326,112.351 251.126,112.351 251.126,118.151 250.326,118.151 250.326,121.251 251.126,121.251 251.126,122.251 265.126,122.251 265.126,121.251 265.926,121.251 265.926,118.151 265.126,118.151 265.126,112.351 265.926,112.351 265.926,109.251 265.126,109.251 265.126,108.251" style="fill:none;stroke-width:0.050000mm;stroke:black"/>
<polygon points="146.351,108.251 146.351,109.251 145.551,109.251 145.551,112.351 146.351,112.351 146.351,118.151 145.551,118.151 145.551,121.251 146.351,121.251 146.351,122.251 160.351,122.251 160.351,121.251 161.151,121.251 161.151,118.151 160.351,118.151 160.351,112.351 161.151,112.351 161.151,109.251 160.351,109.251 160.351,108.251" style="fill:none;stroke-width:0.050000mm;stroke:black"/>
<polygon points="127.301,108.251 127.301,109.251 126.501,109.251 126.501,112.351 127.301,112.351 127.301,118.151 126.501,118.151 126.501,121.251 127.301,121.251 127.301,122.251 141.301,122.251 141.301,121.251 142.101,121.251 142.101,118.151 141.301,118.151 141.301,112.351 142.101,112.351 142.101,109.251 141.301,109.251 141.301,108.251" style="fill:none;stroke-width:0.050000mm;stroke:black"/>
<polygon points="327.326,105.965 327.326,106.965 326.526,106.965 326.526,110.065 327.326,110.065 327.326,115.865 326.526,115.865 326.526,118.965 327.326,118.965 327.326,119.965 341.326,119.965 341.326,118.965 342.126,118.965 342.126,115.865 341.326,115.865 341.326,110.065 342.126,110.065 342.126,106.965 341.326,106.965 341.326,105.965" style="fill:none;stroke-width:0.050000mm;stroke:black"/>
<polygon points="289.226,105.965 289.226,106.965 288.426,106.965 288.426,110.065 289.226,110.065 289.226,115.865 288.426,115.865 288.426,118.965 289.226,118.965 289.226,119.965 303.226,119.965 303.226,118.965 304.026,118.965 304.026,115.865 303.226,115.865 303.226,110.065 304.026,110.065 304.026,106.965 303.226,106.965 303.226,105.965" style="fill:none;stroke-width:0.050000mm;stroke:black"/>
<polygon points="108.251,105.965 108.251,106.965 107.451,106.965 107.451,110.065 108.251,110.065 108.251,115.865 107.451,115.865 107.451,118.965 108.251,118.965 108.251,119.965 122.251,119.965 122.251,118.965 123.051,118.965 123.051,115.865 122.251,115.865 122.251,110.065 123.051,110.065 123.051,106.965 122.251,106.965 122.251,105.965" style="fill:none;stroke-width:0.050000mm;stroke:black"/>
<polygon points="70.151,105.965 70.151,106.965 69.351,106.965 69.351,110.065 70.151,110.065 70.151,115.865 69.351,115.865 69.351,118.965 70.151,118.965 70.151,119.965 84.151,119.965 84.151,118.965 84.951,118.965 84.951,115.865 84.151,115.865 84.151,110.065 84.951,110.065 84.951,106.965 84.151,106.965 84.151,105.965" style="fill:none;stroke-width:0.050000mm;stroke:black"/>
<polygon points="233.076,102.688 233.076,103.488 232.076,103.488 232.076,117.488 233.076,117.488 233.076,118.288 236.175,118.288 236.175,117.488 241.976,117.488 241.976,118.288 245.076,118.288 245.076,117.488 246.076,117.488 246.076,103.488 245.076,103.488 245.076,102.688 241.976,102.688 241.976,103.488 236.175,103.488 236.175,102.688" style="fill:none;stroke-width:0.050000mm;stroke:black"/>
<polygon points="166.401,102.688 166.401,103.488 165.401,103.488 165.401,117.488 166.401,117.488 166.401,118.288 169.501,118.288 169.501,117.488 175.301,117.488 175.301,118.288 178.401,118.288 178.401,117.488 179.401,117.488 179.401,103.488 178.401,103.488 178.401,102.688 175.301,102.688 175.301,103.488 169.501,103.488 169.501,102.688" style="fill:none;stroke-width:0.050000mm;stroke:black"/>
<polygon points="308.276,103.488 308.276,104.488 307.476,104.488 307.476,107.588 308.276,107.588 308.276,113.388 307.476,113.388 307.476,116.488 308.276,116.488 308.276,117.488 322.276,117.488 322.276,116.488 323.076,116.488 323.076,113.388 322.276,113.388 322.276,107.588 323.076,107.588 323.076,104.488 322.276,104.488 322.276,103.488" style="fill:none;stroke-width:0.050000mm;stroke:black"/>
<polygon points="89.201,103.488 89.201,104.488 88.401,104.488 88.401,107.588 89.201,107.588 89.201,113.388 88.401,113.388 88.401,116.488 89.201,116.488 89.201,117.488 103.201,117.488 103.201,116.488 104.001,116.488 104.001,113.388 103.201,113.388 103.201,107.588 104.001,107.588 104.001,104.488 103.201,104.488 103.201,103.488" style="fill:none;stroke-width:0.050000mm;stroke:black"/>
<polygon points="346.376,91.677 346.376,92.677 345.576,92.677 345.576,95.777 346.376,95.777 346.376,101.577 345.576,101.577 345.576,104.677 346.376,104.677 346.376,105.677 360.376,105.677 360.376,104.677 361.176,104.677 361.176,101.577 360.376,101.577 360.376,95.777 361.176,95.777 361.176,92.677 360.376,92.677 360.376,91.677" style="fill:none;stroke-width:0.050000mm;stroke:black"/>
<polygon points="51.101,91.677 51.101,92.677 50.301,92.677 50.301,95.777 51.101,95.777 51.101,101.577 50.301,101.577 50.301,104.677 51.101,104.677 51.101,105.677 65.100,105.677 65.100,104.677 65.901,104.677 65.901,101.577 65.100,101.577 65.100,95.777 65.901,95.777 65.901,92.677 65.100,92.677 65.100,91.677" style="fill:none;stroke-width:0.050000mm;stroke:black"/>
<polygon points="27.288,91.677 27.288,92.677 26.488,92.677 26.488,95.777 27.288,95.777 27.288,101.577 26.488,101.577 26.488,104.677 27.288,104.677 27.288,105.677 41.288,105.677 41.288,104.677 42.088,104.677 42.088,101.577 41.288,101.577 41.288,95.777 42.088,95.777 42.088,92.677 41.288,92.677 41.288,91.677" style="fill:none;stroke-width:0.050000mm;stroke:black"/>
<polygon points="379.069,73.052 379.069,73.877 372.799,73.877 372.799,75.602 371.599,75.602 371.599,78.902 372.799,78.902 372.799,80.627 377.269,80.627 377.269,82.152 376.669,82.152 376.669,81.352 373.569,81.352 373.569,82.152 372.569,82.152 372.569,96.152 373.569,96.152 373.569,96.952 376.669,96.952 376.669,96.152 377.269,96.152 377.269,97.677 372.799,97.677 372.799,99.402 371.599,99.402 371.599,102.702 372.799,102.702 372.799,104.427 379.069,104.427 379.069,105.252 381.869,105.252 381.869,104.427 385.099,104.427 385.099,97.677 381.869,97.677 381.869,96.152 382.469,96.152 382.469,96.952 385.569,96.952 385.569,96.152 386.569,96.152 386.569,82.152 385.569,82.152 385.569,81.352 382.469,81.352 382.469,82.152 381.869,82.152 381.869,80.627 385.099,80.627 385.099,73.877 381.869,73.877 381.869,73.052" style="fill:none;stroke-width:0.050000mm;stroke:black"/>
<polygon points="270.176,89.201 270.176,90.201 269.376,90.201 269.376,93.301 270.176,93.301 270.176,99.101 269.376,99.101 269.376,102.201 270.176,102.201 270.176,103.201 284.176,103.201 284.176,102.201 284.976,102.201 284.976,99.101 284.176,99.101 284.176,93.301 284.976,93.301 284.976,90.201 284.176,90.201 284.176,89.201" style="fill:none;stroke-width:0.050000mm;stroke:black"/>
<polygon points="251.126,89.201 251.126,90.201 250.326,90.201 250.326,93.301 251.126,93.301 251.126,99.101 250.326,99.101 250.326,102.201 251.126,102.201 251.126,103.201 265.126,103.201 265.126,102.201 265.926,102.201 265.926,99.101 265.126,99.101 265.126,93.301 265.926,93.301 265.926,90.201 265.126,90.201 265.126,89.201" style="fill:none;stroke-width:0.050000mm;stroke:black"/>
<polygon points="146.351,89.201 146.351,90.201 145.551,90.201 145.551,93.301 146.351,93.301 146.351,99.101 145.551,99.101 145.551,102.201 146.351,102.201 146.351,103.201 160.351,103.201 160.351,102.201 161.151,102.201 161.151,99.101 160.351,99.101 160.351,93.301 161.151,93.301 161.151,90.201 160.351,90.201 160.351,89.201" style="fill:none;stroke-width:0.050000mm;stroke:black"/>
<polygon points="127.301,89.201 127.301,90.201 126.501,90.201 126.501,93.301 127.301,93.301 127.301,99.101 126.501,99.101 126.501,102.201 127.301,102.201 127.301,103.201 141.301,103.201 141.301,102.201 142.101,102.201 142.101,99.101 141.301,99.101 141.301,93.301 142.101,93.301 142.101,90.201 141.301,90.201 141.301,89.201" style="fill:none;stroke-width:0.050000mm;stroke:black"/>
<polygon points="327.326,86.915 327.326,87.915 326.526,87.915 326.526,91.015 327.326,91.015 327.326,96.815 326.526,96.815 326.526,99.915 327.326,99.915 327.326,100.915 341.326,100.915 341.326,99.915 342.126,99.915 342.126,96.815 341.326,96.815 341.326,91.015 342.126,91.015 342.126,87.915 341.326,87.915 341.326,86.915" style="fill:none;stroke-width:0.050000mm;stroke:black"/>
<polygon points="289.226,86.915 289.226,87.915 288.426,87.915 288.426,91.015 289.226,91.015 289.226,96.815 288.426,96.815 288.426,99.915 289.226,99.915 289.226,100.915 303.226,100.915 303.226,99.915 304.026,99.915 304.026,96.815 303.226,96.815 303.226,91.015 304.026,91.015 304.026,87.915 303.226,87.915 303.226,86.915" style="fill:none;stroke-width:0.050000mm;stroke:black"/>
<polygon points="108.251,86.915 108.251,87.915 107.451,87.915 107.451,91.015 108.251,91.015 108.251,96.815 107.451,96.815 107.451,99.915 108.251,99.915 108.251,100.915 122.251,100.915 122.251,99.915 123.051,99.915 123.051,96.815 122.251,96.815 122.251,91.015 123.051,91.015 123.051,87.915 122.251,87.915 122.251,86.915" style="fill:none;stroke-width:0.050000mm;stroke:black"/>
<polygon points="70.151,86.915 70.151,87.915 69.351,87.915 69.351,91.015 70.151,91.015 70.151,96.815 69.351,96.815 69.351,99.915 70.151,99.915 70.151,100.915 84.151,100.915 84.151,99.915 84.951,99.915 84.951,96.815 84.151,96.815 84.151,91.015 84.951,91.015 84.951,87.915 84.151,87.915 84.151,86.915" style="fill:none;stroke-width:0.050000mm;stroke:black"/>
<polygon points="308.276,84.438 308.276,85.438 307.476,85.438 307.476,88.538 308.276,88.538 308.276,94.338 307.476,94.338 307.476,97.438 308.276,97.438 308.276,98.438 322.276,98.438 322.276,97.438 323.076,97.438 323.076,94.338 322.276,94.338 322.276,88.538 323.076,88.538 323.076,85.438 322.276,85.438 322.276,84.438" style="fill:none;stroke-width:0.050000mm;stroke:black"/>
<polygon points="89.201,84.438 89.201,85.438 88.401,85.438 88.401,88.538 89.201,88.538 89.201,94.338 88.401,94.338 88.401,97.438 89.201,97.438 89.201,98.438 103.201,98.438 103.201,97.438 104.001,97.438 104.001,94.338 103.201,94.338 103.201,88.538 104.001,88.538 104.001,85.438 103.201,85.438 103.201,84.438" style="fill:none;stroke-width:0.050000mm;stroke:black"/>
<polygon points="233.076,74.113 233.076,74.913 232.076,74.913 232.076,88.913 233.076,88.913 233.076,89.713 236.176,89.713 236.176,88.913 241.976,88.913 241.976,89.713 245.076,89.713 245.076,88.913 246.076,88.913 246.076,74.913 245.076,74.913 245.076,74.113 241.976,74.113 241.976,74.913 236.176,74.913 236.176,74.113" style="fill:none;stroke-width:0.050000mm;stroke:black"/>
<polygon points="166.401,74.113 166.401,74.913 165.401,74.913 165.401,88.913 166.401,88.913 166.401,89.713 169.501,89.713 169.501,88.913 175.301,88.913 175.301,89.713 178.401,89.713 178.401,88.913 179.401,88.913 179.401,74.913 178.401,74.913 178.401,74.113 175.301,74.113 175.301,74.913 169.501,74.913 169.501,74.113" style="fill:none;stroke-width:0.050000mm;stroke:black"/>
<polygon points="346.376,72.627 346.376,73.627 345.576,73.627 345.576,76.727 346.376,76.727 346.376,82.527 345.576,82.527 345.576,85.627 346.376,85.627 346.376,86.627 360.376,86.627 360.376,85.627 361.176,85.627 361.176,82.527 360.376,82.527 360.376,76.727 361.176,76.727 361.176,73.627 360.376,73.627 360.376,72.627" style="fill:none;stroke-width:0.050000mm;stroke:black"/>
<polygon points="51.101,72.627 51.101,73.627 50.301,73.627 50.301,76.727 51.101,76.727 51.101,82.527 50.301,82.527 50.301,85.627 51.101,85.627 51.101,86.627 65.100,86.627 65.100,85.627 65.901,85.627 65.901,82.527 65.100,82.527 65.100,76.727 65.901,76.727 65.901,73.627 65.100,73.627 65.100,72.627" style="fill:none;stroke-width:0.050000mm;stroke:black"/>
<polygon points="27.288,72.627 27.288,73.627 26.488,73.627 26.488,76.727 27.288,76.727 27.288,82.527 26.488,82.527 26.488,85.627 27.288,85.627 27.288,86.627 41.288,86.627 41.288,85.627 42.088,85.627 42.088,82.527 41.288,82.527 41.288,76.727 42.088,76.727 42.088,73.627 41.288,73.627 41.288,72.627" style="fill:none;stroke-width:0.050000mm;stroke:black"/>
<polygon points="270.176,70.151 270.176,71.151 269.376,71.151 269.376,74.251 270.176,74.251 270.176,80.051 269.376,80.051 269.376,83.151 270.176,83.151 270.176,84.151 284.176,84.151 284.176,83.151 284.976,83.151 284.976,80.051 284.176,80.051 284.176,74.251 284.976,74.251 284.976,71.151 284.176,71.151 284.176,70.151" style="fill:none;stroke-width:0.050000mm;stroke:black"/>
<polygon points="251.126,70.151 251.126,71.151 250.326,71.151 250.326,74.251 251.126,74.251 251.126,80.051 250.326,80.051 250.326,83.151 251.126,83.151 251.126,84.151 265.126,84.151 265.126,83.151 265.926,83.151 265.926,80.051 265.126,80.051 265.126,74.251 265.926,74.251 265.926,71.151 265.126,71.151 265.126,70.151" style="fill:none;stroke-width:0.050000mm;stroke:black"/>
<polygon points="146.351,70.151 146.351,71.151 145.551,71.151 145.551,74.251 146.351,74.251 146.351,80.051 145.551,80.051 145.551,83.151 146.351,83.151 146.351,84.151 160.351,84.151 160.351,83.151 161.151,83.151 161.151,80.051 160.351,80.051 160.351,74.251 161.151,74.251 161.151,71.151 160.351,71.151 160.351,70.151" style="fill:none;stroke-width:0.050000mm;stroke:black"/>
<polygon points="127.301,70.151 127.301,71.151 126.501,71.151 126.501,74.251 127.301,74.251 127.301,80.051 126.501,80.051 126.501,83.151 127.301,83.151 127.301,84.151 141.301,84.151 141.301,83.151 142.101,83.151 142.101,80.051 141.301,80.051 141.301,74.251 142.101,74.251 142.101,71.151 141.301,71.151 141.301,70.151" style="fill:none;stroke-width:0.050000mm;stroke:black"/>
<polygon points="327.326,67.865 327.326,68.865 326.526,68.865 326.526,71.965 327.326,71.965 327.326,77.765 326.526,77.765 326.526,80.865 327.326,80.865 327.326,81.865 341.326,81.865 341.326,80.865 342.126,80.865 342.126,77.765 341.326,77.765 341.326,71.965 342.126,71.965 342.126,68.865 341.326,68.865 341.326,67.865" style="fill:none;stroke-width:0.050000mm;stroke:black"/>
<polygon points="289.226,67.865 289.226,68.865 288.426,68.865 288.426,71.965 289.226,71.965 289.226,77.765 288.426,77.765 288.426,80.865 289.226,80.865 289.226,81.865 303.226,81.865 303.226,80.865 304.026,80.865 304.026,77.765 303.226,77.765 303.226,71.965 304.026,71.965 304.026,68.865 303.226,68.865 303.226,67.865" style="fill:none;stroke-width:0.050000mm;stroke:black"/>
<polygon points="108.251,67.865 108.251,68.865 107.451,68.865 107.451,71.965 108.251,71.965 108.251,77.765 107.451,77.765 107.451,80.865 108.251,80.865 108.251,81.865 122.251,81.865 122.251,80.865 123.051,80.865 123.051,77.765 122.251,77.765 122.251,71.965 123.051,71.965 123.051,68.865 122.251,68.865 122.251,67.865" style="fill:none;stroke-width:0.050000mm;stroke:black"/>
<polygon points="70.151,67.865 70.151,68.865 69.351,68.865 69.351,71.965 70.151,71.965 70.151,77.765 69.351,77.765 69.351,80.865 70.151,80.865 70.151,81.865 84.151,81.865 84.151,80.865 84.951,80.865 84.951,77.765 84.151,77.765 84.151,71.965 84.951,71.965 84.951,68.865 84.151,68.865 84.151,67.865" style="fill:none;stroke-width:0.050000mm;stroke:black"/>
<polygon points="308.276,65.388 308.276,66.388 307.476,66.388 307.476,69.488 308.276,69.488 308.276,75.288 307.476,75.288 307.476,78.388 308.276,78.388 308.276,79.388 322.276,79.388 322.276,78.388 323.076,78.388 323.076,75.288 322.276,75.288 322.276,69.488 323.076,69.488 323.076,66.388 322.276,66.388 322.276,65.388" style="fill:none;stroke-width:0.050000mm;stroke:black"/>
<polygon points="89.201,65.388 89.201,66.388 88.401,66.388 88.401,69.488 89.201,69.488 89.201,75.288 88.401,75.288 88.401,78.388 89.201,78.388 89.201,79.388 103.201,79.388 103.201,78.388 104.001,78.388 104.001,75.288 103.201,75.288 103.201,69.488 104.001,69.488 104.001,66.388 103.201,66.388 103.201,65.388" style="fill:none;stroke-width:0.050000mm;stroke:black"/>
<polygon points="370.188,53.577 370.188,54.577 369.388,54.577 369.388,57.677 370.188,57.677 370.188,63.477 369.388,63.477 369.388,66.577 370.188,66.577 370.188,67.577 384.188,67.577 384.188,66.577 384.988,66.577 384.988,63.477 384.188,63.477 384.188,57.677 384.988,57.677 384.988,54.577 384.188,54.577 384.188,53.577" style="fill:none;stroke-width:0.050000mm;stroke:black"/>
<polygon points="346.376,53.577 346.376,54.577 345.576,54.577 345.576,57.677 346.376,57.677 346.376,63.477 345.576,63.477 345.576,66.577 346.376,66.577 346.376,67.577 360.376,67.577 360.376,66.577 361.176,66.577 361.176,63.477 360.376,63.477 360.376,57.677 361.176,57.677 361.176,54.577 360.376,54.577 360.376,53.577" style="fill:none;stroke-width:0.050000mm;stroke:black"/>
<polygon points="51.101,53.577 51.101,54.577 50.301,54.577 50.301,57.677 51.101,57.677 51.101,63.477 50.301,63.477 50.301,66.577 51.101,66.577 51.101,67.577 65.100,67.577 65.100,66.577 65.901,66.577 65.901,63.477 65.100,63.477 65.100,57.677 65.901,57.677 65.901,54.577 65.100,54.577 65.100,53.577" style="fill:none;stroke-width:0.050000mm;stroke:black"/>
<polygon points="27.288,53.577 27.288,54.577 26.488,54.577 26.488,57.677 27.288,57.677 27.288,63.477 26.488,63.477 26.488,66.577 27.288,66.577 27.288,67.577 41.288,67.577 41.288,66.577 42.088,66.577 42.088,63.477 41.288,63.477 41.288,57.677 42.088,57.677 42.088,54.577 41.288,54.577 41.288,53.577" style="fill:none;stroke-width:0.050000mm;stroke:black"/>
<polygon points="270.176,51.101 270.176,52.101 269.376,52.101 269.376,55.201 270.176,55.201 270.176,61.001 269.376,61.001 269.376,64.100 270.176,64.100 270.176,65.100 284.176,65.100 284.176,64.100 284.976,64.100 284.976,61.001 284.176,61.001 284.176,55.201 284.976,55.201 284.976,52.101 284.176,52.101 284.176,51.101" style="fill:none;stroke-width:0.050000mm;stroke:black"/>
<polygon points="251.126,51.101 251.126,52.101 250.326,52.101 250.326,55.201 251.126,55.201 251.126,61.001 250.326,61.001 250.326,64.100 251.126,64.100 251.126,65.100 265.126,65.100 265.126,64.100 265.926,64.100 265.926,61.001 265.126,61.001 265.126,55.201 265.926,55.201 265.926,52.101 265.126,52.101 265.126,51.101" style="fill:none;stroke-width:0.050000mm;stroke:black"/>
<polygon points="232.076,51.101 232.076,52.101 231.276,52.101 231.276,55.201 232.076,55.201 232.076,61.001 231.276,61.001 231.276,64.100 232.076,64.100 232.076,65.100 246.076,65.100 246.076,64.100 246.876,64.100 246.876,61.001 246.076,61.001 246.076,55.201 246.876,55.201 246.876,52.101 246.076,52.101 246.076,51.101" style="fill:none;stroke-width:0.050000mm;stroke:black"/>
<polygon points="165.401,51.101 165.401,52.101 164.601,52.101 164.601,55.201 165.401,55.201 165.401,61.001 164.601,61.001 164.601,64.100 165.401,64.100 165.401,65.100 179.401,65.100 179.401,64.100 180.201,64.100 180.201,61.001 179.401,61.001 179.401,55.201 180.201,55.201 180.201,52.101 179.401,52.101 179.401,51.101" style="fill:none;stroke-width:0.050000mm;stroke:black"/>
<polygon points="146.351,51.101 146.351,52.101 145.551,52.101 145.551,55.201 146.351,55.201 146.351,61.001 145.551,61.001 145.551,64.100 146.351,64.100 146.351,65.100 160.351,65.100 160.351,64.100 161.151,64.100 161.151,61.001 160.351,61.001 160.351,55.201 161.151,55.201 161.151,52.101 160.351,52.101 160.351,51.101" style="fill:none;stroke-width:0.050000mm;stroke:black"/>
<polygon points="127.301,51.101 127.301,52.101 126.501,52.101 126.501,55.201 127.301,55.201 127.301,61.001 126.501,61.001 126.501,64.100 127.301,64.100 127.301,65.100 141.301,65.100 141.301,64.100 142.101,64.100 142.101,61.001 141.301,61.001 141.301,55.201 142.101,55.201 142.101,52.101 141.301,52.101 141.301,51.101" style="fill:none;stroke-width:0.050000mm;stroke:black"/>
<polygon points="327.326,48.815 327.326,49.815 326.526,49.815 326.526,52.915 327.326,52.915 327.326,58.715 326.526,58.715 326.526,61.815 327.326,61.815 327.326,62.815 341.326,62.815 341.326,61.815 342.126,61.815 342.126,58.715 341.326,58.715 341.326,52.915 342.126,52.915 342.126,49.815 341.326,49.815 341.326,48.815" style="fill:none;stroke-width:0.050000mm;stroke:black"/>
<polygon points="289.226,48.815 289.226,49.815 288.426,49.815 288.426,52.915 289.226,52.915 289.226,58.715 288.426,58.715 288.426,61.815 289.226,61.815 289.226,62.815 303.226,62.815 303.226,61.815 304.026,61.815 304.026,58.715 303.226,58.715 303.226,52.915 304.026,52.915 304.026,49.815 303.226,49.815 303.226,48.815" style="fill:none;stroke-width:0.050000mm;stroke:black"/>
<polygon points="108.251,48.815 108.251,49.815 107.451,49.815 107.451,52.915 108.251,52.915 108.251,58.715 107.451,58.715 107.451,61.815 108.251,61.815 108.251,62.815 122.251,62.815 122.251,61.815 123.051,61.815 123.051,58.715 122.251,58.715 122.251,52.915 123.051,52.915 123.051,49.815 122.251,49.815 122.251,48.815" style="fill:none;stroke-width:0.050000mm;stroke:black"/>
<polygon points="70.151,48.815 70.151,49.815 69.351,49.815 69.351,52.915 70.151,52.915 70.151,58.715 69.351,58.715 69.351,61.815 70.151,61.815 70.151,62.815 84.151,62.815 84.151,61.815 84.951,61.815 84.951,58.715 84.151,58.715 84.151,52.915 84.951,52.915 84.951,49.815 84.151,49.815 84.151,48.815" style="fill:none;stroke-width:0.050000mm;stroke:black"/>
<polygon points="308.276,46.338 308.276,47.338 307.476,47.338 307.476,50.438 308.276,50.438 308.276,56.238 307.476,56.238 307.476,59.338 308.276,59.338 308.276,60.338 322.276,60.338 322.276,59.338 323.076,59.338 323.076,56.238 322.276,56.238 322.276,50.438 323.076,50.438 323.076,47.338 322.276,47.338 322.276,46.338" style="fill:none;stroke-width:0.050000mm;stroke:black"/>
<polygon points="89.201,46.338 89.201,47.338 88.401,47.338 88.401,50.438 89.201,50.438 89.201,56.238 88.401,56.238 88.401,59.338 89.201,59.338 89.201,60.338 103.201,60.338 103.201,59.338 104.001,59.338 104.001,56.238 103.201,56.238 103.201,50.438 104.001,50.438 104.001,47.338 103.201,47.338 103.201,46.338" style="fill:none;stroke-width:0.050000mm;stroke:black"/>
<polygon points="374.951,22.526 374.951,23.526 374.151,23.526 374.151,26.626 374.951,26.626 374.951,32.425 374.151,32.425 374.151,35.526 374.951,35.526 374.951,36.526 388.951,36.526 388.951,35.526 389.751,35.526 389.751,32.425 388.951,32.425 388.951,26.626 389.751,26.626 389.751,23.526 388.951,23.526 388.951,22.526" style="fill:none;stroke-width:0.050000mm;stroke:black"/>
<polygon points="351.138,22.526 351.138,23.526 350.338,23.526 350.338,26.626 351.138,26.626 351.138,32.425 350.338,32.425 350.338,35.526 351.138,35.526 351.138,36.526 365.138,36.526 365.138,35.526 365.938,35.526 365.938,32.425 365.138,32.425 365.138,26.626 365.938,26.626 365.938,23.526 365.138,23.526 365.138,22.526" style="fill:none;stroke-width:0.050000mm;stroke:black"/>
<polygon points="327.326,22.526 327.326,23.526 326.526,23.526 326.526,26.626 327.326,26.626 327.326,32.425 326.526,32.425 326.526,35.526 327.326,35.526 327.326,36.526 341.326,36.526 341.326,35.526 342.126,35.526 342.126,32.425 341.326,32.425 341.326,26.626 342.126,26.626 342.126,23.526 341.326,23.526 341.326,22.526" style="fill:none;stroke-width:0.050000mm;stroke:black"/>
<polygon points="303.513,22.526 303.513,23.526 302.713,23.526 302.713,26.626 303.513,26.626 303.513,32.425 302.713,32.425 302.713,35.526 303.513,35.526 303.513,36.526 317.513,36.526 317.513,35.526 318.313,35.526 318.313,32.425 317.513,32.425 317.513,26.626 318.313,26.626 318.313,23.526 317.513,23.526 317.513,22.526" style="fill:none;stroke-width:0.050000mm;stroke:black"/>
<polygon points="279.701,22.526 279.701,23.526 278.901,23.526 278.901,26.626 279.701,26.626 279.701,32.425 278.901,32.425 278.901,35.526 279.701,35.526 279.701,36.526 293.701,36.526 293.701,35.526 294.501,35.526 294.501,32.425 293.701,32.425 293.701,26.626 294.501,26.626 294.501,23.526 293.701,23.526 293.701,22.526" style="fill:none;stroke-width:0.050000mm;stroke:black"/>
<polygon points="255.888,22.526 255.888,23.526 255.088,23.526 255.088,26.626 255.888,26.626 255.888,32.425 255.088,32.425 255.088,35.526 255.888,35.526 255.888,36.526 269.888,36.526 269.888,35.526 270.688,35.526 270.688,32.425 269.888,32.425 269.888,26.626 270.688,26.626 270.688,23.526 269.888,23.526 269.888,22.526" style="fill:none;stroke-width:0.050000mm;stroke:black"/>
<polygon points="232.076,22.526 232.076,23.526 231.275,23.526 231.275,26.626 232.076,26.626 232.076,32.425 231.275,32.425 231.275,35.526 232.076,35.526 232.076,36.526 246.076,36.526 246.076,35.526 246.876,35.526 246.876,32.425 246.076,32.425 246.076,26.626 246.876,26.626 246.876,23.526 246.076,23.526 246.076,22.526" style="fill:none;stroke-width:0.050000mm;stroke:black"/>
<polygon points="165.401,22.526 165.401,23.526 164.601,23.526 164.601,26.626 165.401,26.626 165.401,32.425 164.601,32.425 164.601,35.526 165.401,35.526 165.401,36.526 179.401,36.526 179.401,35.526 180.201,35.526 180.201,32.425 179.401,32.425 179.401,26.626 180.201,26.626 180.201,23.526 179.401,23.526 179.401,22.526" style="fill:none;stroke-width:0.050000mm;stroke:black"/>
<polygon points="141.588,22.526 141.588,23.526 140.788,23.526 140.788,26.626 141.588,26.626 141.588,32.425 140.788,32.425 140.788,35.526 141.588,35.526 141.588,36.526 155.588,36.526 155.588,35.526 156.388,35.526 156.388,32.425 155.588,32.425 155.588,26.626 156.388,26.626 156.388,23.526 155.588,23.526 155.588,22.526" style="fill:none;stroke-width:0.050000mm;stroke:black"/>
<polygon points="117.776,22.526 117.776,23.526 116.976,23.526 116.976,26.626 117.776,26.626 117.776,32.425 116.976,32.425 116.976,35.526 117.776,35.526 117.776,36.526 131.776,36.526 131.776,35.526 132.576,35.526 132.576,32.425 131.776,32.425 131.776,26.626 132.576,26.626 132.576,23.526 131.776,23.526 131.776,22.526" style="fill:none;stroke-width:0.050000mm;stroke:black"/>
<polygon points="93.963,22.526 93.963,23.526 93.163,23.526 93.163,26.626 93.963,26.626 93.963,32.425 93.163,32.425 93.163,35.526 93.963,35.526 93.963,36.526 107.963,36.526 107.963,35.526 108.763,35.526 108.763,32.425 107.963,32.425 107.963,26.626 108.763,26.626 108.763,23.526 107.963,23.526 107.963,22.526" style="fill:none;stroke-width:0.050000mm;stroke:black"/>
<polygon points="70.151,22.526 70.151,23.526 69.351,23.526 69.351,26.626 70.151,26.626 70.151,32.425 69.351,32.425 69.351,35.526 70.151,35.526 70.151,36.526 84.151,36.526 84.151,35.526 84.951,35.526 84.951,32.425 84.151,32.425 84.151,26.626 84.951,26.626 84.951,23.526 84.151,23.526 84.151,22.526" style="fill:none;stroke-width:0.050000mm;stroke:black"/>
<polygon points="46.338,22.526 46.338,23.526 45.538,23.526 45.538,26.626 46.338,26.626 46.338,32.425 45.538,32.425 45.538,35.526 46.338,35.526 46.338,36.526 60.338,36.526 60.338,35.526 61.138,35.526 61.138,32.425 60.338,32.425 60.338,26.626 61.138,26.626 61.138,23.526 60.338,23.526 60.338,22.526" style="fill:none;stroke-width:0.050000mm;stroke:black"/>
<polygon points="22.526,22.526 22.526,23.526 21.725,23.526 21.725,26.626 22.526,26.626 22.526,32.425 21.725,32.425 21.725,35.526 22.526,35.526 22.526,36.526 36.526,36.526 36.526,35.526 37.325,35.526 37.325,32.425 36.526,32.425 36.526,26.626 37.325,26.626 37.325,23.526 36.526,23.526 36.526,22.526" style="fill:none;stroke-width:0.050000mm;stroke:black"/>
<polygon points="11.882,10.598 11.325,10.882 10.882,11.325 10.598,11.882 10.501,12.501 10.598,13.119 10.882,13.676 11.325,14.119 11.882,14.403 12.501,14.501 13.119,14.403 13.676,14.119 14.119,13.676 14.403,13.119 14.501,12.501 14.403,11.882 14.119,11.325 13.676,10.882 13.119,10.598 12.501,10.501" style="fill:none;stroke-width:0.050000mm;stroke:black"/>
<polygon points="398.358,10.598 397.801,10.882 397.358,11.325 397.074,11.882 396.977,12.501 397.074,13.119 397.358,13.676 397.801,14.119 398.358,14.403 398.977,14.501 399.595,14.403 400.152,14.119 400.595,13.676 400.879,13.119 400.977,12.501 400.879,11.882 400.595,11.325 400.152,10.882 399.595,10.598 398.977,10.501" style="fill:none;stroke-width:0.050000mm;stroke:black"/>
<polygon points="269.533,10.598 268.976,10.882 268.533,11.325 268.249,11.882 268.151,12.501 268.249,13.119 268.533,13.676 268.976,14.119 269.533,14.403 270.151,14.501 270.769,14.403 271.327,14.119 271.769,13.676 272.053,13.119 272.151,12.501 272.053,11.882 271.769,11.325 271.327,10.882 270.769,10.598 270.151,10.501" style="fill:none;stroke-width:0.050000mm;stroke:black"/>
<polygon points="140.708,10.598 140.150,10.882 139.708,11.325 139.424,11.882 139.326,12.501 139.424,13.119 139.708,13.676 140.150,14.119 140.708,14.403 141.326,14.501 141.944,14.403 142.501,14.119 142.944,13.676 143.228,13.119 143.326,12.501 143.228,11.882 142.944,11.325 142.501,10.882 141.944,10.598 141.326,10.501" style="fill:none;stroke-width:0.050000mm;stroke:black"/>
</svg>
