<?xml version="1.0" encoding="UTF-8" standalone="no"?>
<!-- Generated by SVGo -->

<svg
   xmlns:dc="http://purl.org/dc/elements/1.1/"
   xmlns:cc="http://creativecommons.org/ns#"
   xmlns:rdf="http://www.w3.org/1999/02/22-rdf-syntax-ns#"
   xmlns:svg="http://www.w3.org/2000/svg"
   xmlns="http://www.w3.org/2000/svg"
   xmlns:sodipodi="http://sodipodi.sourceforge.net/DTD/sodipodi-0.dtd"
   xmlns:inkscape="http://www.inkscape.org/namespaces/inkscape"
   width="411.477mm"
   height="212.044mm"
   viewBox="0.000 0.000 411.477 212.044"
   version="1.1"
   id="svg214"
   sodipodi:docname="Ergodox-clone-ISO-bottom.svg"
   inkscape:version="0.92.5 (2060ec1f9f, 2020-04-08)">
  <metadata
     id="metadata220">
    <rdf:RDF>
      <cc:Work
         rdf:about="">
        <dc:format>image/svg+xml</dc:format>
        <dc:type
           rdf:resource="http://purl.org/dc/dcmitype/StillImage" />
        <dc:title></dc:title>
      </cc:Work>
    </rdf:RDF>
  </metadata>
  <defs
     id="defs218" />
  <sodipodi:namedview
     pagecolor="#ffffff"
     bordercolor="#666666"
     borderopacity="1"
     objecttolerance="10"
     gridtolerance="10"
     guidetolerance="10"
     inkscape:pageopacity="0"
     inkscape:pageshadow="2"
     inkscape:window-width="1920"
     inkscape:window-height="1016"
     id="namedview216"
     showgrid="false"
     inkscape:zoom="0.73045802"
     inkscape:cx="777.59431"
     inkscape:cy="400.71308"
     inkscape:window-x="0"
     inkscape:window-y="0"
     inkscape:window-maximized="1"
     inkscape:current-layer="svg214" />
  <polygon
     points="396.477,5.001 397.261,5.031 398.041,5.124 398.811,5.277 399.567,5.490 400.303,5.762 401.016,6.090 401.701,6.474 402.354,6.910 402.971,7.396 403.548,7.929 404.081,8.506 404.567,9.123 405.003,9.776 405.387,10.461 405.715,11.174 405.987,11.910 406.200,12.666 406.353,13.436 406.446,14.216 406.477,15.001 406.477,197.044 406.446,197.829 406.353,198.608 406.200,199.379 405.987,200.134 405.715,200.871 405.387,201.584 405.003,202.269 404.567,202.922 404.081,203.539 403.548,204.115 402.971,204.648 402.354,205.134 401.701,205.571 401.016,205.954 400.303,206.283 399.567,206.555 398.811,206.768 398.041,206.921 397.261,207.013 396.477,207.044 15.001,207.044 14.216,207.013 13.436,206.921 12.666,206.768 11.910,206.555 11.174,206.283 10.461,205.954 9.776,205.571 9.123,205.134 8.506,204.648 7.929,204.115 7.396,203.539 6.910,202.922 6.474,202.269 6.090,201.584 5.762,200.871 5.490,200.134 5.277,199.379 5.124,198.608 5.031,197.829 5.000,197.044 5.001,15.001 5.031,14.216 5.124,13.436 5.277,12.666 5.490,11.910 5.762,11.174 6.090,10.461 6.474,9.776 6.910,9.123 7.396,8.506 7.929,7.929 8.506,7.396 9.123,6.910 9.776,6.474 10.461,6.090 11.174,5.762 11.910,5.490 12.666,5.277 13.436,5.124 14.216,5.031 15.001,5.000"
     style="fill:none;stroke-width:0.050000mm;stroke:black"
     id="polygon2" />
  <polygon
     points="11.882,197.642 11.325,197.926 10.882,198.369 10.598,198.926 10.501,199.544 10.598,200.162 10.882,200.720 11.325,201.162 11.882,201.446 12.501,201.544 13.119,201.446 13.676,201.162 14.119,200.720 14.403,200.162 14.501,199.544 14.403,198.926 14.119,198.369 13.676,197.926 13.119,197.642 12.501,197.544"
     style="fill:none;stroke-width:0.050000mm;stroke:black"
     id="polygon4" />
  <polygon
     points="140.708,197.642 140.150,197.926 139.708,198.369 139.424,198.926 139.326,199.544 139.424,200.162 139.708,200.720 140.150,201.162 140.708,201.446 141.326,201.544 141.944,201.446 142.501,201.162 142.944,200.720 143.228,200.162 143.326,199.544 143.228,198.926 142.944,198.369 142.501,197.926 141.944,197.642 141.326,197.544"
     style="fill:none;stroke-width:0.050000mm;stroke:black"
     id="polygon6" />
  <polygon
     points="269.533,197.642 268.976,197.926 268.533,198.369 268.249,198.926 268.151,199.544 268.249,200.162 268.533,200.720 268.976,201.162 269.533,201.446 270.151,201.544 270.769,201.446 271.327,201.162 271.769,200.720 272.053,200.162 272.151,199.544 272.053,198.926 271.769,198.369 271.327,197.926 270.769,197.642 270.151,197.544"
     style="fill:none;stroke-width:0.050000mm;stroke:black"
     id="polygon8" />
  <polygon
     points="398.358,197.642 397.801,197.926 397.358,198.369 397.074,198.926 396.977,199.544 397.074,200.162 397.358,200.720 397.801,201.162 398.358,201.446 398.977,201.544 399.595,201.446 400.152,201.162 400.595,200.720 400.879,200.162 400.977,199.544 400.879,198.926 400.595,198.369 400.152,197.926 399.595,197.642 398.977,197.544"
     style="fill:none;stroke-width:0.050000mm;stroke:black"
     id="polygon10" />
  <polygon
     points="11.882,10.598 11.325,10.882 10.882,11.325 10.598,11.882 10.501,12.501 10.598,13.119 10.882,13.676 11.325,14.119 11.882,14.403 12.501,14.501 13.119,14.403 13.676,14.119 14.119,13.676 14.403,13.119 14.501,12.501 14.403,11.882 14.119,11.325 13.676,10.882 13.119,10.598 12.501,10.501"
     style="fill:none;stroke-width:0.050000mm;stroke:black"
     id="polygon206" />
  <polygon
     points="398.358,10.598 397.801,10.882 397.358,11.325 397.074,11.882 396.977,12.501 397.074,13.119 397.358,13.676 397.801,14.119 398.358,14.403 398.977,14.501 399.595,14.403 400.152,14.119 400.595,13.676 400.879,13.119 400.977,12.501 400.879,11.882 400.595,11.325 400.152,10.882 399.595,10.598 398.977,10.501"
     style="fill:none;stroke-width:0.050000mm;stroke:black"
     id="polygon208" />
  <polygon
     points="269.533,10.598 268.976,10.882 268.533,11.325 268.249,11.882 268.151,12.501 268.249,13.119 268.533,13.676 268.976,14.119 269.533,14.403 270.151,14.501 270.769,14.403 271.327,14.119 271.769,13.676 272.053,13.119 272.151,12.501 272.053,11.882 271.769,11.325 271.327,10.882 270.769,10.598 270.151,10.501"
     style="fill:none;stroke-width:0.050000mm;stroke:black"
     id="polygon210" />
  <polygon
     points="140.708,10.598 140.150,10.882 139.708,11.325 139.424,11.882 139.326,12.501 139.424,13.119 139.708,13.676 140.150,14.119 140.708,14.403 141.326,14.501 141.944,14.403 142.501,14.119 142.944,13.676 143.228,13.119 143.326,12.501 143.228,11.882 142.944,11.325 142.501,10.882 141.944,10.598 141.326,10.501"
     style="fill:none;stroke-width:0.050000mm;stroke:black"
     id="polygon212" />
</svg>
